<?xml version="1.0" encoding="utf-8"?>
<!-- Generator: Adobe Illustrator 21.0.0, SVG Export Plug-In . SVG Version: 6.00 Build 0)  -->
<svg version="1.1" id="Layer_1" xmlns="http://www.w3.org/2000/svg" xmlns:xlink="http://www.w3.org/1999/xlink" x="0px" y="0px"
	 viewBox="0 0 600 600" style="enable-background:new 0 0 600 600;" xml:space="preserve">
<style type="text/css">
	.st0{fill:#80C1A9;}
	.st1{fill:#213A31;}
	.st2{fill:#406155;}
	.st3{fill:none;stroke:#20302A;stroke-width:40;stroke-miterlimit:10;}
	.st4{fill:#60917F;}
</style>
<rect x="-100.3" y="279.8" transform="matrix(0.7071 -0.7071 0.7071 0.7071 -123.6714 301.0679)" class="st0" width="803.8" height="40"/>
<rect x="197.4" y="454" transform="matrix(0.7071 -0.7071 0.7071 0.7071 -230.8173 390.8085)" class="st1" width="317.8" height="40"/>
<rect x="81.7" y="102.5" transform="matrix(0.7071 -0.7071 0.7071 0.7071 -17.8021 201.9782)" class="st2" width="306.4" height="40"/>
<rect x="246.3" y="-30.8" transform="matrix(0.7071 -0.7071 0.7071 0.7071 -123.5596 300.818)" class="st3" width="110.1" height="660.7"/>
<rect x="123.6" y="279.1" transform="matrix(0.7071 -0.7071 0.7071 0.7071 -282.959 236.1484)" class="st4" width="40" height="361.1"/>
<rect x="431.1" y="-41.9" transform="matrix(0.7071 -0.7071 0.7071 0.7071 26.4604 362.7328)" class="st4" width="40" height="382.7"/>
</svg>
